<svg xmlns="http://www.w3.org/2000/svg" width="159.744" height="143.984" viewBox="0 0 159.744 143.984">
  <g id="_117-Business-Meeting_1_" data-name="117-Business-Meeting (1)" transform="translate(-44.772 -70.012)">
    <path id="color_x5F_2" d="M104.227,135.163l-.044.023c0-.007.01-.014.014-.021Zm82.431,30.05c-.023.138-.048.312-.074.51a9.014,9.014,0,0,1,.873-1.961A3.521,3.521,0,0,0,186.658,165.213Zm-55.4-30.628a5.694,5.694,0,0,1,.873,1.186c.9-1.774,1.441-3.85,3.22-4.83a.546.546,0,0,1,.143-.081,4.188,4.188,0,0,1,.477-.2c.141-.049.54-.176.628.028a3.89,3.89,0,0,1,.311,1.706,3.455,3.455,0,0,1,.5-.3l.073-.165q.026-2.26.051-4.52l-6.026-.069C131.465,129.756,131.3,132.168,131.255,134.585Zm-12.638,15.987c-.035.079-.075.158-.119.238,0,.044-.006.087-.008.131l.135-.071a.279.279,0,0,1-.013-.1C118.615,150.708,118.615,150.64,118.617,150.573Zm1.2.4h0v0Zm-17.98-14.813-.143.066.175-.062C101.857,136.162,101.846,136.163,101.835,136.161Zm29.328,6.278a59.313,59.313,0,0,1-3.553,7.052c.122.767.266,1.529.454,2.282.088.35-.828.593-.915.246-.545-2.173-.711-4.421-1.038-6.632-.284-1.928-.5-4.424-1.7-6.049-1.761-2.395-4.615-3.007-7.287-3.975,1.139,1.565,1.446,4.274,1.707,5.848a46.284,46.284,0,0,1,.707,9.243c.2-.082.4-.16.609-.232.153-.053.484-.046.533.16a2.05,2.05,0,0,1-.4,1.821c.9.2,1.537.72.857,1.644a5.952,5.952,0,0,1-.8.873c.17-.028.319-.017.347.064.52,1.544-.329,2.609-1.615,3.334V170.6h4.594c-.577-5.16-.917-10.353-1.285-15.531-.3-4.242-.742-8.527-.765-12.784,0-.289.914-.434.915-.246.023,4.384.479,8.8.792,13.167q.087,1.214.173,2.43a.3.3,0,0,1,.189.158c.717,1.624,2.168,4.169,4.051,2.327.13-.128.252-.265.375-.4a.659.659,0,0,1,.209-.23,20.4,20.4,0,0,0,2.822-4.958c1.011-2.275,1.873-4.611,2.714-6.954a17.859,17.859,0,0,1,1.275-3.35.222.222,0,0,1-.109-.046A7.494,7.494,0,0,0,131.163,142.438Zm87.194,37.68a90.752,90.752,0,0,0-1.461-9.339c-.673-3.276-1.733-6.247-4.286-8.553a38.792,38.792,0,0,0-3.969-3.033c-2.032,2.415-2.984,5.688-3.483,8.749a55.973,55.973,0,0,0-.106,15.077c0,.026.006.053.008.08.941-.206,1.876-.451,2.807-.712.648-.181,1.294-.369,1.94-.557a4.369,4.369,0,0,1-.062-.945,9.232,9.232,0,0,1,.382-3.967.433.433,0,0,1,.229-.208,58.821,58.821,0,0,1-1.285-8.3c-.042-.44.875-.663.915-.246a43.736,43.736,0,0,0,2.76,12.841l.191-.05c.542-.139.647.244.1.384-.748.193-1.495.4-2.241.614-.007.011-.011.021-.02.033a.585.585,0,0,1-.71.177,41.968,41.968,0,0,1-9.367,1.965c.164.019.3.106.3.28v3.476s0,.007,0,.011a.438.438,0,0,1,.076-.009H205a.593.593,0,0,1,.264,0H211a.665.665,0,0,1,.476,0h3.495l2.6-.042c.785-.614.869-2.037.925-2.945A30.019,30.019,0,0,0,218.357,180.118Zm-7.53,10.607a21.084,21.084,0,0,0-.189-2.414h-5.17c.285,3.277,1.073,7.632,5.333,6.445.009-1.286.055-2.573.029-3.856C210.6,190.911,210.67,190.82,210.827,190.726Zm-93.616-30.433c.009.264.013.519.03.741.008.107.017.214.027.322-.02-.321-.041-.661-.034-1C117.226,160.335,117.218,160.315,117.211,160.292Zm-4.571-22.441a.979.979,0,0,0,.477-.134c-.012-.021-.022-.045-.035-.064-.039-.058.127-.169.33-.245a2.476,2.476,0,0,0-.065-1.785.766.766,0,0,1-.553.008c-.205.042-.413.018-.461-.121a10.652,10.652,0,0,0-.71-1.6c-.033.212-.06.426-.081.639a2.174,2.174,0,0,0-.024.777.071.071,0,0,1,0,.014c.088.141-.205.34-.486.409C110.926,136.771,111.452,137.9,112.639,137.851Zm6,11.632c0-.009,0-.018,0-.027l-.01.013Zm-5.826-15.468a.72.72,0,0,1-.017-.1l-.135,0c.038.075.077.148.113.224A.438.438,0,0,1,112.816,134.015Zm-.331,4.365c-.044,0-.087,0-.13,0a11.267,11.267,0,0,0-.023,3c.012,1.831.041,3.663.06,5.494.016,1.562.049,3.127,0,4.689a6.556,6.556,0,0,1-.025.815l.023-.012a.558.558,0,0,1,.461-.023c.159-.032.3-.028.352.053.014.022.025.045.039.067a8.509,8.509,0,0,1,1.7-2.094,7.806,7.806,0,0,1,.626-.526c-.729-.461-1.11-4.985-1.217-5.607-.252-1.466-.5-2.933-.766-4.4-.085-.457-.116-1.128-.271-1.669A2.669,2.669,0,0,1,112.485,138.38Zm-.509,23.215.005-.042-.031.014A.309.309,0,0,1,111.975,161.595Zm-8.5,3.3c-.186.051-.373.1-.56.146.005.033.011.07.017.108a2.519,2.519,0,0,1,.191,1.92c0,.26-.033.443-.112.469a.25.25,0,0,0-.047.032,10.463,10.463,0,0,1-2.151,3.151l-.422.53a.165.165,0,0,1-.036.114c-.832,1.24-1.74,2.453-2.7,3.631a.238.238,0,0,1,.085.2c-.075,1.726-1.038,3.532-1.061,5.284l.11,1a2.306,2.306,0,0,0,1.021,1.434l1.1.441a8.69,8.69,0,0,0,3.481-.07.651.651,0,0,1,.128-.008q.752-2.306,1.525-4.606.859-2.57,1.716-5.141a11.191,11.191,0,0,0,.761-2.324.051.051,0,0,1-.009-.07.494.494,0,0,1,.2-.2l.014-.006a.791.791,0,0,1,.572-.332h.5c.014-2.391.127-4.78.15-7.171l-.817.224A36.3,36.3,0,0,1,103.478,164.9Zm9.708-29.941c.049-.051.095-.1.142-.156-.036-.015-.069-.034-.106-.048a.389.389,0,0,1-.163.02c.03.075.057.15.086.225ZM98.11,170.895l-1.7-.614A6.584,6.584,0,0,0,98.11,170.895Zm18.181-21.487.008,0q-.064-.277-.143-.563c.016.085.032.167.045.241C116.229,149.191,116.261,149.3,116.291,149.407Zm28.239-5.487a.207.207,0,0,1-.024.089l6.292.072c.1-8.878.057-17.757.157-26.635a.2.2,0,0,1,.007-.041l-6.355-.073C144.515,126.2,144.626,135.058,144.53,143.92Zm-35.6-10.1.016-.017-.552-.015q.074.063.152.121A1.268,1.268,0,0,1,108.931,133.822Zm42.585-16.865V116.9l-2.159.031Zm4.727,27.084q.071-6.165.166-12.33l-.263,12.328Zm.912-.042a.221.221,0,0,1-.01.059l3.216.059,2.984.034q.2-17.223.391-34.447l-6.109-.07C157.495,121.09,157.287,132.544,157.155,144Zm12.073.159a.154.154,0,0,1,0,.017l6.143.07c.152-13.082.371-26.164.521-39.247a.226.226,0,0,1,.055-.138l-6.323.118C169.475,118.039,169.376,131.1,169.229,144.158Zm-57.72-5.8a.208.208,0,0,1,.06-.072,2.141,2.141,0,0,1-.277-.107c.059.1.12.206.173.31A1.223,1.223,0,0,1,111.509,138.358ZM89.277,183.4c.016-.026.033-.05.05-.074v-.053l-.1.074A.314.314,0,0,1,89.277,183.4Zm-7.156,2.273a10.955,10.955,0,0,1-3.991-2.934,35.947,35.947,0,0,1-3.341-3.938c-.061,3.76.987,7.59-.23,11.252-1.083,3.258-3.262,5.768-2.888,9.348a.208.208,0,0,1,.033.012,7.558,7.558,0,0,0,3.757.761l2.874-.47a14.859,14.859,0,0,0,5.24-2.7,7.273,7.273,0,0,0,1.442-1.588c.2-.353.4-.721.592-1.084,1.211-2.74.751-6.073.723-9.148A5.651,5.651,0,0,1,82.12,185.671Zm17.149-14.16a.791.791,0,0,1-.317.066,8.229,8.229,0,0,1-3.915-1.289.365.365,0,0,1-.4-.2l0-.01c-1.342.981-2.747,1.876-4.137,2.79l-.316.27-.282.127c-.331.221-.662.443-.988.669a34.519,34.519,0,0,0-3.779,2.8l.015.017c.091.1-.124.239-.365.318a7.727,7.727,0,0,0-1.476,1.968c-.167.332-1.092.368-.867-.078a8.265,8.265,0,0,1,1.622-2.141c-2.356-2.677-3.2-6.447-6.23-8.548-.159-.11.636-.478.859-.323,2.945,2.039,3.811,5.631,6,8.289.374-.325.765-.634,1.159-.93A25.113,25.113,0,0,0,82.7,166.85c-.776.855-2.24.318-3.254.067a13.53,13.53,0,0,0-4.743-.678,4.01,4.01,0,0,0-3.172,2.4c-.74,2.732,2.037,6.793,3.307,8.651,1.866,2.731,4.4,6.36,7.528,7.752,2.219.987,4.824-.591,6.966-2.4v-.117c0-.2.287-.342.541-.352.921-.819,1.735-1.643,2.364-2.262a56.469,56.469,0,0,0,7.111-8.325C99.274,171.578,99.24,171.553,99.27,171.511Zm8.613-36.979.05-.075a4.377,4.377,0,0,1-.35-.265,2.086,2.086,0,0,1,.116.252A.31.31,0,0,1,107.883,134.532Zm10.625,23.4c-.129.062-.265.134-.406.214-.042.039-.088.075-.132.112h0c.076-.036.152-.073.226-.111a.7.7,0,0,1,.39-.221l.007,0-.025.006A.343.343,0,0,1,118.508,157.932Zm-6.026-4.945c-4.327,2.158-8.7,4.272-13.521,5-.626.095-.372-.526.1-.6a25.579,25.579,0,0,0,3.206-.708.2.2,0,0,1-.025-.1c.036-4.935,1.87-12.213-2.5-15.859-.264-.22.589-.581.848-.366,4.429,3.693,2.623,11.048,2.572,16.054a43.8,43.8,0,0,0,4.933-1.95.242.242,0,0,1-.089-.212,66.786,66.786,0,0,0-.081-10.168c-.271-2.668-.617-6.916-3.269-8.378a.183.183,0,0,1-.065-.312,23.087,23.087,0,0,1-2.938,1.225c-2.874,1.046-6.092,2.932-6.854,6.186-.449,1.919-.231,4.137-.331,6.11-.09,1.763-.2,3.525-.25,5.289-.056,1.787-.087,3.58.006,5.366.068,1.288-.065,3.1.507,4.381a3.37,3.37,0,0,1,.288-.621c.371-.6,1.722-1.472,2.464-.991a1.2,1.2,0,0,1,.267.237,11.554,11.554,0,0,1,.942-1.683c.14-.206.56-.411.79-.212a2.067,2.067,0,0,1,.773,1.642c.744-.237,1.621-.279,1.709.686a4.792,4.792,0,0,1-.075,1.285.384.384,0,0,1,.274.024,3.183,3.183,0,0,1,.262.213,56.757,56.757,0,0,0,9.72-3.735.818.818,0,0,1,.249-.11q.485-.215.971-.426A9.814,9.814,0,0,0,112.482,152.988Zm-3.548,1.083.208-.1a1.467,1.467,0,0,1-.2-.074C108.938,153.956,108.936,154.013,108.933,154.07Zm11.6-.82.007.009c0-.008,0-.016,0-.024S120.536,153.246,120.534,153.251Zm-.535-.494a.34.34,0,0,1,.057-.046,1.744,1.744,0,0,0-.177-.062c-.039.036-.078.072-.118.107A.347.347,0,0,1,120,152.757Zm-.238-1.278c.01-.036.022-.071.029-.107l-.065.089C119.737,151.464,119.747,151.474,119.76,151.479Zm-5.093.2a.3.3,0,0,1,.013-.1,6.372,6.372,0,0,0-.594.892c.007-.006.013-.013.02-.019A5.232,5.232,0,0,0,114.667,151.682Zm4.992,3.6c0,.068,0,.137,0,.2a.351.351,0,0,1,.242.114,2.753,2.753,0,0,0-.091-.431Zm-.1-.548a6.037,6.037,0,0,0,.491-.5c.048-.056.106-.122.164-.194a.507.507,0,0,1-.256.1.256.256,0,0,1-.044,0,1.85,1.85,0,0,1-.348.461C119.555,154.659,119.554,154.706,119.554,154.732Zm-.16,2.48a.207.207,0,0,1,.009.027c.027-.032.052-.065.077-.1C119.452,157.166,119.422,157.188,119.394,157.212Zm.516-1.165c-.008.02-.015.039-.023.06.006,0,.01,0,.016,0C119.9,156.091,119.909,156.07,119.91,156.048Zm-3.619,4.8a6.5,6.5,0,0,0-.2-1.66,2.165,2.165,0,0,1-.487.1c-.434.084-.837.147-1.182.191a8.373,8.373,0,0,1-.283,1.02l0,.007c-.006.018-.011.036-.017.053-.027.077-.144.139-.285.181q-.452.2-.9.395c-.049.709-.08,1.42-.106,2.131a4.681,4.681,0,0,0,.131,2.346,6.588,6.588,0,0,0,1.657,1.885c.705-.9,2.042-1.556,1.944-2.891C116.466,163.349,116.4,162.1,116.291,160.845Zm84.193,23.3.017,0h-.02Zm-11.359-21.366c-3.286,4.025-1.6,9.392-3.547,13.9a.467.467,0,0,1-.3.231c1.412,2.669,2.865,5.315,4.461,7.878A2.5,2.5,0,0,1,190.6,184a5.747,5.747,0,0,1,.943-.575c-.075-.019-.12-.057-.109-.12.924-5.043-1.737-10.928,1.038-15.64.143-.243,1-.305.906-.148-2.762,4.691-.135,10.544-1.028,15.58a9.162,9.162,0,0,1,1.4-.364,2.691,2.691,0,0,1,.585-.185l.008,0a22.41,22.41,0,0,1-.276-4.429c-.039-2.052-.047-4.1-.047-6.157a51.567,51.567,0,0,1,2.477-14.246C193.954,159.319,191.028,160.444,189.125,162.774Zm15.007,20.452-1.085.244q.547-.08,1.092-.183C204.136,183.267,204.134,183.246,204.132,183.226Z" transform="translate(-18.186 -23.797)" fill="#ffbd9a"/>
    <path id="color_x5F_1" d="M65.844,129.059c-.1-.2.039-.361.223-.447.145-.068.519-.14.618.054a2.057,2.057,0,0,0,.359.533,1.925,1.925,0,0,0,.5.334c.206.105.077.35-.057.446a.64.64,0,0,1-.654.063A2.166,2.166,0,0,1,65.844,129.059Zm8.138-45.213a2.522,2.522,0,0,1,.868-3.995c1.249-.616,3.119-.637,3.932.7a2.634,2.634,0,0,1-.5,3.494A3.365,3.365,0,0,1,73.982,83.846Zm.848-.365c.906.925,2.856,1.023,3.338-.414a2.439,2.439,0,0,0-.332-2.287,2.009,2.009,0,0,0-2.947-.284A2.1,2.1,0,0,0,74.83,83.481Zm-15.258,18.1a3.179,3.179,0,0,1-.4-1.988,2.214,2.214,0,0,1,.43-1.589,8.188,8.188,0,0,1,1.591-1,3.742,3.742,0,0,1-.442-1.719,4.045,4.045,0,0,1,1.507-1.849,2.756,2.756,0,0,1,2.663-.314,3.368,3.368,0,0,1,1-1.4,3.918,3.918,0,0,1,1.986-.38,2.952,2.952,0,0,1,1.87.3,6.33,6.33,0,0,1,1,1.517,6.357,6.357,0,0,1,1.627-.328,2,2,0,0,1,1.324.731c.463.459,1.156,1.043,1.184,1.753a5.654,5.654,0,0,1-.427,1.668,6.91,6.91,0,0,1,1.694,1.123c.383.487.26,1.366.239,1.93-.053,1.426-.82,1.759-1.879,2.381a5.846,5.846,0,0,1,.405,1.806c-.077.654-.776,1.2-1.225,1.608a2.735,2.735,0,0,1-1.685.88,4.341,4.341,0,0,1-1.41-.295,5.426,5.426,0,0,1-.909,1.378,2.482,2.482,0,0,1-1.608.428,4.125,4.125,0,0,1-2.207-.294,3.8,3.8,0,0,1-.972-1.448,4.606,4.606,0,0,1-1.612.345,2.987,2.987,0,0,1-1.758-1.089c-.386-.379-.9-.862-.9-1.452a8.631,8.631,0,0,1,.423-1.772A4.477,4.477,0,0,1,59.573,101.585Zm.533-2.046c0,.521-.084,1.4.435,1.737.468.3.987.522,1.464.811.211.128.155.3,0,.433-.114.484-.3.954-.381,1.44a1.147,1.147,0,0,0,.432,1.013c.317.338,1.006,1.214,1.56,1.146a14.851,14.851,0,0,0,1.571-.43c.335-.08.535.117.529.323a8.425,8.425,0,0,0,.763,1.323,1.8,1.8,0,0,0,1.441.4c.514,0,1.033.117,1.314-.382.24-.427.473-.851.746-1.258a.869.869,0,0,1,.6-.213.551.551,0,0,1,.228-.019,9.993,9.993,0,0,0,1.521.415c.137.009.427-.3.526-.387a8.511,8.511,0,0,0,.814-.812c.654-.778.126-1.588-.057-2.474-.042-.03-.049-.074.005-.132a.584.584,0,0,1,.345-.219A2.145,2.145,0,0,0,75.515,99.4c-.062-1.186-.825-1.412-1.7-1.958-.175.007-.312-.034-.284-.148A10.525,10.525,0,0,0,74,95.617c.034-.554-.442-1.02-.8-1.384-.291-.3-.85-1.035-1.344-.935-.393.08-.778.194-1.167.288a.783.783,0,0,1-.588.106c-.121,0-.158-.051-.141-.114-.55-.831-.715-1.671-1.838-1.677-.44,0-1.454-.166-1.743.272-.27.409-.489.851-.745,1.27a.812.812,0,0,1-.823.181c-.493-.1-.973-.269-1.467-.352-.344-.058-1.026.834-1.246,1.1a1.178,1.178,0,0,0-.373,1.2c.163.475.341.936.461,1.426.013.054-.037.11-.119.159.008.083-.039.174-.173.264-.444.3-.914.539-1.373.812S60.1,99.069,60.106,99.54Zm4.525,2.505a3.3,3.3,0,0,1,1.083-5.226c1.627-.8,4.012-.8,5.064.938a3.469,3.469,0,0,1-.652,4.594A4.305,4.305,0,0,1,64.631,102.045Zm.848-.365c1.295,1.322,4.1,1.391,4.777-.636a3.319,3.319,0,0,0-.458-3.11,2.863,2.863,0,1,0-4.319,3.746ZM180.045,126.5a1.089,1.089,0,0,0,.638-.12,1.953,1.953,0,0,0,.928-.876c.073-.144-.324-.086-.363-.079-.15.028-.458.088-.538.244a1.292,1.292,0,0,1-.55.6C180.1,126.3,179.838,126.454,180.045,126.5ZM70.211,83.51a2.441,2.441,0,0,1-.308-1.528,1.718,1.718,0,0,1,.341-1.231,5.423,5.423,0,0,1,1.148-.73,2.575,2.575,0,0,1-.308-1.236,3.047,3.047,0,0,1,1.134-1.391,2.016,2.016,0,0,1,1.276-.479,3.268,3.268,0,0,1,.758.134,2.32,2.32,0,0,1,.728-.983,3.139,3.139,0,0,1,1.6-.315A2.272,2.272,0,0,1,78.037,76a4.438,4.438,0,0,1,.73,1.106,4.414,4.414,0,0,1,1.17-.228,1.545,1.545,0,0,1,1.048.559c.347.345.87.786.891,1.319a4.11,4.11,0,0,1-.314,1.239,5.031,5.031,0,0,1,1.252.83A2.341,2.341,0,0,1,83,82.276c-.04,1.067-.612,1.343-1.4,1.8a4.168,4.168,0,0,1,.3,1.334c-.059.5-.6.918-.938,1.227a2.233,2.233,0,0,1-1.4.7,2.949,2.949,0,0,1-.95-.18,3.628,3.628,0,0,1-.638.949,2.063,2.063,0,0,1-1.338.366,3.157,3.157,0,0,1-1.708-.237,2.575,2.575,0,0,1-.689-1.01,3.291,3.291,0,0,1-1.169.233,2.3,2.3,0,0,1-1.362-.831,1.763,1.763,0,0,1-.7-1.146,5.872,5.872,0,0,1,.306-1.279A3.2,3.2,0,0,1,70.211,83.51Zm.622-1.586c0,.36-.066,1,.295,1.232s.736.389,1.091.605c.2.122.161.287.022.414-.086.35-.216.693-.278,1.045a.8.8,0,0,0,.309.71c.2.217.708.861,1.066.816a10.79,10.79,0,0,0,1.14-.315c.314-.076.511.095.528.286a6.243,6.243,0,0,0,.567.982,1.254,1.254,0,0,0,1.013.282c.343,0,.646.1.826-.223s.352-.635.557-.938a.5.5,0,0,1,.248-.151.911.911,0,0,1,.573-.072,10.337,10.337,0,0,0,1.037.293.434.434,0,0,0,.1-.064q.1-.081.2-.168a6.216,6.216,0,0,0,.591-.591c.478-.568.079-1.177-.054-1.825-.026-.027-.027-.062.006-.105a.56.56,0,0,1,.342-.224,2.336,2.336,0,0,0,.873-.566,2.587,2.587,0,0,0,.2-1.485c-.046-.87-.6-1.04-1.237-1.435-.154,0-.267-.046-.242-.15a7.811,7.811,0,0,0,.347-1.254c.025-.4-.333-.745-.589-1.007-.175-.178-.609-.748-.912-.686-.254.052-.5.121-.754.185a.7.7,0,0,1-.686.088c-.077-.019-.135-.059-.107-.139v0c-.356-.57-.5-1.153-1.265-1.158-.263,0-.977-.12-1.147.137-.2.305-.365.635-.556.947a.8.8,0,0,1-.845.169c-.348-.073-.688-.188-1.037-.25-.007.006-.009.01-.017.017-.063.052-.123.105-.182.161a7.248,7.248,0,0,0-.56.58.853.853,0,0,0-.267.874c.122.355.254.7.344,1.064.011.046-.024.092-.083.135.011.084-.035.178-.172.27-.34.229-.7.413-1.049.621C70.788,81.2,70.831,81.631,70.833,81.924ZM202.926,156c-.3,3.089.15,6.754-1.794,9.3a4.7,4.7,0,0,1-3.01,2,4.238,4.238,0,0,1-.6.062.154.154,0,0,1,0,.018c.174,4.462-.025,10.014-2.626,13.828a.265.265,0,0,1-.045.048c1.437.867,2.435,2.356.991,3.668-1.685,1.531-4.569,1.488-6.692,1.462-1.555-.019-3.1-.146-4.648-.271v19.394c3.272-.08,8.8-.342,7.857,4.237a.218.218,0,0,1-.035.075,1.789,1.789,0,0,1,.8.706,2.169,2.169,0,0,1-.416,2.879,2.842,2.842,0,0,1-3.631-.145,2.066,2.066,0,0,1,.44-3.125c-.464-2.222-3.17-2.438-5.153-2.447a.258.258,0,0,1,.008.058v1.759c0,.208-.316.352-.578.349a2.209,2.209,0,0,1,.32.412,2.311,2.311,0,0,1-.441,3.066,3,3,0,0,1-3.835-.163,2.063,2.063,0,0,1-.135-2.661.227.227,0,0,1-.059-.158v-2.647c-1.931-.016-4.91-.046-5.41,2.238a1.77,1.77,0,0,1,.581.586,2.169,2.169,0,0,1-.416,2.879,2.843,2.843,0,0,1-3.632-.145,2.08,2.08,0,0,1,.678-3.267c-.069-.007-.117-.028-.126-.068-1.043-4.833,5.595-4.409,8.889-4.334V185.853a66.428,66.428,0,0,1-7.053-.095c-1.516-.146-5.832-.458-5.627-2.863.2-2.32,3.321-2.562,5.1-2.612.636-.018,1.27,0,1.9.037-2.491-.573-4.978-1.164-7.484-1.665a.7.7,0,0,1-.552.055.571.571,0,0,1-.172.027,16.824,16.824,0,0,1-4.471-.287c2.933,8.008-.571,16.726,1,24.979a.2.2,0,0,1,0,.047c.115.007.208.044.239.126.666,1.78,2.213,8.558-1.333,8.335-.092-.006-.238-.008-.274-.118a18.23,18.23,0,0,1-.626-1.983,8.6,8.6,0,0,1-3.123,2.306c-.938.427-2.421,1.2-3.485.708a1.63,1.63,0,0,1-1-1.2c-1.91.724-7.081,2.6-7.357.009-.141-1.327,1.616-2.854,2.459-3.633a17.713,17.713,0,0,1,3.236-2.54c.648-.783,1.365-1.508,1.576-1.885-1.161-7.8-4.268-15.219-4.829-23.136-.222-3.128-.2-6.834,1.749-9.475a8.608,8.608,0,0,1,5.978-3.237H130.741v41.112c0,.306-.916.5-.916.112V167.756h-3.237v41.112c0,.306-.916.5-.916.112V167.755H107.561c-.049,11.5-2.032,22.959-1.043,34.46.027.306-.407.506-.687.46-.436,3.022,2.006,3.461,4.191,4.526a3.984,3.984,0,0,1,2.385,4.81c-.067.357-.735.491-.9.245H101.026a.661.661,0,0,1-.158-.016c-.25.215-.81.214-.808-.164.02-3.123.327-6.235.346-9.358a.256.256,0,0,1,.019-.093.429.429,0,0,1-.285-.074.084.084,0,0,1-.05-.063.211.211,0,0,1-.025-.1c-.035-11.583-2.06-23.054-2.115-34.635h-.029c-.054,11.479-2.03,22.924-1.042,34.407a.307.307,0,0,1-.045.185c-.027,1.841-.322,3.662-.345,5.5a.359.359,0,0,1-.227.3l.085.088c.711.752,2.281,2.288,1.737,3.495-.962,2.134-4.884.6-6.837-.21a1.817,1.817,0,0,1-.913,1.035c-1.1.59-2.381-.024-3.378-.519a7.786,7.786,0,0,1-2.766-2.21c-.143.565-.348,1.123-.5,1.628-.071.231-.442.291-.639.3-2.98.2-1.423-6.69-.915-8.149a.3.3,0,0,1,.134-.144c1.525-8.315-1.988-17.059,1.073-25.111a13.584,13.584,0,0,1-4.144.383l-.014.078c-.016.1-.157.174-.323.219a.618.618,0,0,1-.175.13,12.677,12.677,0,0,1-2.491.983c3.227.055,5.9.721,5.36,2.922-.554,2.233-4.285,2.529-6.088,2.68-2.065.174-4.126.126-6.189.1v19.67c3.1-.026,9.564-.7,8.549,4.225a.223.223,0,0,1-.035.075,1.785,1.785,0,0,1,.8.706,2.17,2.17,0,0,1-.416,2.879,2.843,2.843,0,0,1-3.632-.145,2.066,2.066,0,0,1,.443-3.127c-.5-2.284-3.653-2.522-5.754-2.537a.224.224,0,0,1,.053.15v1.759a.293.293,0,0,1-.155.232,2.155,2.155,0,0,1,.451.529,2.311,2.311,0,0,1-.441,3.066,3,3,0,0,1-3.835-.163,2.063,2.063,0,0,1-.135-2.661.228.228,0,0,1-.059-.158v-2.647c-1.931-.016-4.91-.046-5.41,2.238a1.766,1.766,0,0,1,.582.586,2.169,2.169,0,0,1-.416,2.879,2.843,2.843,0,0,1-3.632-.145A2.081,2.081,0,0,1,56.916,210c-.069-.007-.117-.028-.126-.068-1.016-4.692,4.869-4.459,8.2-4.389V186c-1.908.148-3.814.326-5.734.331-1.717,0-5.249.142-6.3-1.643a2.32,2.32,0,0,1-.346-1.056.33.33,0,0,1-.1-.028c-5.621-2.853-3.175-11.82-3.132-16.746a.221.221,0,0,1,.012-.068c-1.317-.638-1.905-2.48-2.234-3.894-.54-2.325-.656-4.693-.99-7.045a50.276,50.276,0,0,1-1.375-7.6c-.074-1.887.145-4.029,2.295-4.5,4.579-1.015,4.386,8.28,4.472,11.148.885,2.881,4.076,11.545-.827,12.106a2.731,2.731,0,0,1-.44.015c-.05,2.812-.507,5.6-.435,8.422.069,2.7.486,5.842,2.895,7.4.5-1.164,2.209-1.9,3.649-2.135a3.234,3.234,0,0,1-1.507-4.246,7.485,7.485,0,0,1-1.878-.585c-.219.047-.434.039-.448-.062-.5-3.627,1.635-5.957,2.717-9.2,1.424-4.271.029-8.507.44-12.856a.19.19,0,0,1,.063-.115c-.072-.106-.145-.211-.215-.318-1.146-1.745-3.305-4.922-3.3-7.543a1.74,1.74,0,0,1-.3-.086c-2.112-.049-2.208-1.81-1.681-3.767.908-3.37,2.558-6.622,2.867-10.136.306-3.479-2.032-6.912.093-10.21,1.71-2.654,4.785-3.614,7.794-3.744l.044-.029a18.5,18.5,0,0,1,3.165-2.711c.876-.541,2.7-1.471,3.574-.417,1.343,1.62.794,3.708-.274,5.306a.367.367,0,0,1,.331.206,28.2,28.2,0,0,0,2.037,3.617.266.266,0,0,1,.025.242c.027,0,.055,0,.081,0,.586.012,1.485.123,1.638.833a3.2,3.2,0,0,1-.585,2.109.25.25,0,0,1-.083.082c.96,1.863,1.346,4.606-.5,6.168-.973.825-2.486.924-3.054,2.223a16.174,16.174,0,0,0-.709,3.3.329.329,0,0,1-.035.09c1.933,3.1,4.3,6.011,4.868,9.723,1.516-.993,3.044-1.973,4.5-3.052-.024-.031-.049-.059-.072-.09-.077-.107.042-.222.215-.3a14.361,14.361,0,0,1-.058-2.433c.018-.5.035-1.039.1-1.57l-.007,0c-1.192-1.125-1.033-3.139-1.115-4.689-.1-1.983-.111-3.968-.038-5.953.071-1.954.189-3.9.279-5.857a43.06,43.06,0,0,1,.138-4.694c.467-2.9,2.517-4.891,4.946-6.332a16.711,16.711,0,0,1,3.032-1.288l.176-.062a15.75,15.75,0,0,0,2.316-.975l.044-.023a6.033,6.033,0,0,0,2.175-1.948.442.442,0,0,1,.23-.138c.005-.04.01-.081.016-.122-.007-.016-.015-.029-.022-.045a.2.2,0,0,1,.061-.232,25.363,25.363,0,0,0,.361-2.694c-2.849-.105-4.888-3.644-5.8-5.954-.878-2.215-1.8-5.936.932-7.183-.1-1.825.934-2.26,2.628-2.555.059-.01.117-.026.176-.037.265-.073.529-.137.776-.191,2.168-.64,4.207-2.081,6.211-3.238a.3.3,0,0,1-.273-.3v-15.6a.289.289,0,0,1,.049-.158c-.13-.155.285-.512.585-.512h81.665c.024,0,.044,0,.064,0v0c0-.312.916-.506.916-.11v40.8a.746.746,0,0,1,.078-.011,7.923,7.923,0,0,1,7.111-1.926,5.237,5.237,0,0,1,2.856-5.353,5.913,5.913,0,0,1,1.868-.514l.117-.041a1.079,1.079,0,0,1,.556.011,4.5,4.5,0,0,1,3.484,1.6,5.086,5.086,0,0,1-2.761,8.408,10.631,10.631,0,0,1,2.2,7.389c-.4,3.457-2.6,6.086-5.4,7.984a.809.809,0,0,1-.266.083v2.659a40.357,40.357,0,0,0,4.157,3.069c.176,0,.309.058.264.179a25.689,25.689,0,0,1,5.346,4.4,13.309,13.309,0,0,1,2.509,4.634.6.6,0,0,1,.288-.091c1.791-.086,4.315-.284,4.966,1.883C205.179,148.853,203.818,152.639,202.926,156Zm-152.8,10.472c2.807,1.335,2.191-4.379,1.969-5.607a51.063,51.063,0,0,0-1.392-5.481c-.038-.014-.063-.034-.064-.063l-.007-.173c-.017-.056-.033-.112-.05-.169a.1.1,0,0,1,.04-.1,44.441,44.441,0,0,0-.458-5.658c-.235-1.4-.854-5.38-3-5.135-3.007.343-1.017,7.805-.235,10.98.043.012.072.031.077.061.034.218.064.437.094.656.032.142.059.269.076.369a.118.118,0,0,1-.02.082c.193,1.6.3,3.2.579,4.791C48.018,162.651,48.408,165.655,50.126,166.472Zm140.344-31.256c-2.033,2.408-2.985,5.672-3.485,8.725a55.645,55.645,0,0,0-.106,15.035c0,.026.006.053.008.079.941-.206,1.876-.45,2.808-.71.648-.181,1.295-.368,1.941-.555a4.343,4.343,0,0,1-.062-.942,9.18,9.18,0,0,1,.382-3.956.433.433,0,0,1,.229-.207,58.493,58.493,0,0,1-1.285-8.276c-.042-.439.875-.661.915-.245a43.5,43.5,0,0,0,2.761,12.805l.191-.05c.542-.139.647.243.1.383-.749.192-1.5.4-2.242.613-.007.011-.011.021-.02.033a.587.587,0,0,1-.711.176,42.1,42.1,0,0,1-9.37,1.96c.164.019.3.105.3.28v3.466s0,.007,0,.011a.441.441,0,0,1,.076-.009h3.933a.6.6,0,0,1,.264,0h5.739a.667.667,0,0,1,.476,0h6.047c.011-.009.019-.018.031-.027l.017-.015c.785-.612.869-2.031.926-2.937a29.8,29.8,0,0,0-.141-4.768,90.239,90.239,0,0,0-1.462-9.313c-.674-3.267-1.734-6.23-4.288-8.529A38.714,38.714,0,0,0,190.469,135.216Zm2.187,31.444a20.958,20.958,0,0,0-.189-2.408H187.3c.285,3.268,1.074,7.611,5.335,6.427.009-1.282.055-2.566.029-3.846C192.426,166.844,192.5,166.754,192.657,166.659Zm-46.746-3.078v-2.123c0-.227.317-.373.58-.363-2.814-4.488-5.176-9.24-7.665-13.911l0,0-.016-.033c-.011-.024.006-.053.039-.082h-.036c-.443,0,.413-.362.6-.362h24.915c.319,0-.034.187-.327.292.909,1.707,1.8,3.424,2.7,5.135,1.243-3.295.664-7.1,1.708-10.4a8.978,8.978,0,0,1,.873-1.955,8.014,8.014,0,0,1,.663-.944,13.1,13.1,0,0,1,3.231-2.725c-20.825,0-41.65-.106-62.475-.109a4.433,4.433,0,0,1-2.167,1.42c-1.377.349-2.374-.569-3.089-1.674.264,3.622.552,7.244.961,10.849a.016.016,0,0,0,0,0h6.921c.312,0,.321.148.2.3a.068.068,0,0,1,.036.062,8.212,8.212,0,0,1-.708,2.223q-.853,2.519-1.728,5.03c-.817,2.356-1.5,4.833-2.492,7.124a.411.411,0,0,1-.251.169h.6a.343.343,0,0,1,.239.063c.127,0,.221.028.222.094.008.6.165,1.171.174,1.767,0,.077-.06.145-.151.2h36.452A.248.248,0,0,1,145.91,163.582Zm-63.574-2.087h1.257a3.989,3.989,0,0,1,.46-1.611c-1.795.33-4.741.541-5.9-1.094-1.369-1.924-.039-4.5.357-6.7a55.575,55.575,0,0,1-5.147,5.226c-.4.354-.845.75-1.327,1.158v8.7a.28.28,0,0,1-.132.217h7.745c0-.007,0-.013,0-.021V163.9c0-.324.594-.48.83-.285h1.238c.011-.523.1-1.038.125-1.559C81.5,161.957,81.994,161.495,82.336,161.495Zm-2.8-10.318c-.075,1.721-1.038,3.522-1.062,5.269a4.18,4.18,0,0,0,.063.815c.011.063.033.118.047.177a2.3,2.3,0,0,0,1.021,1.43,3.512,3.512,0,0,0,1.1.44,8.719,8.719,0,0,0,3.482-.07.654.654,0,0,1,.129-.008q.753-2.3,1.526-4.593.859-2.563,1.716-5.127a11.135,11.135,0,0,0,.761-2.317.051.051,0,0,1-.009-.07.494.494,0,0,1,.2-.194l.014-.006a.792.792,0,0,1,.572-.331h.5c.014-2.384.127-4.767.15-7.151,0-.035,0-.071,0-.106q-.408.168-.819.33a36.146,36.146,0,0,1-3.645,1.238c-.186.051-.373.1-.56.146l-.044.011c.021.032.042.064.06.1a2.505,2.505,0,0,1,.191,1.914,4.448,4.448,0,0,1-.159.5,10.432,10.432,0,0,1-2.152,3.142c-.159.168-.312.324-.459.469a.1.1,0,0,1,.037.059.164.164,0,0,1-.036.114c-.832,1.237-1.74,2.446-2.7,3.621A.233.233,0,0,1,79.531,151.176Zm-.813-10.315c.056-.206.117-.409.18-.612a2.568,2.568,0,0,0,.028-.484,1.548,1.548,0,0,0-.165-.728,1.119,1.119,0,0,0-1.18.535,5.9,5.9,0,0,0-.464,2.127,11.677,11.677,0,0,0,.146,3.887,4.19,4.19,0,0,0,.936.684,6.625,6.625,0,0,0,1.7.613c.469.107.948.183,1.42.245a.4.4,0,0,1,.091.022c1.441-1.442,3.564-4.073,2.317-5.875l-.043.009a.577.577,0,0,1-.249,0c-.135.444-.294.879-.443,1.294-.1.271-1,.388-.909.136.228-.637,1.555-4.625-.068-3.943a16.237,16.237,0,0,1-.573,2.115c-.106.377-1.039.493-.924.081.287-1.025.966-2.329.414-3.308a12.433,12.433,0,0,0-1.112,2.529,6.034,6.034,0,0,1-.225.917c-.12.372-1.053.482-.924.081.02-.06.037-.123.056-.184A.189.189,0,0,1,78.718,140.862Zm15.05-3.252.005-.042-.031.014c-1.027.458-2.053.921-3.087,1.364-.012,2.55-.145,5.1-.157,7.647h9.451V134.579a11.712,11.712,0,0,1-1.148.392,4.254,4.254,0,0,1,.2,1.34c.009.263.013.518.03.739.008.106.017.213.027.321a25.85,25.85,0,0,1,.194,3.245,3.542,3.542,0,0,1-.953,1.807c-.327.4-1.121.965-1.308,1.438a.191.191,0,0,1-.049.065l.029.023a.061.061,0,0,1,.022.082l0,0c-.133.236-.984.3-.9.155-.089.159-1.953-1.774-2.112-2.065C93.32,140.913,93.6,139.079,93.768,137.609Zm.391-9.182.023-.012a.56.56,0,0,1,.461-.023c.159-.032.3-.028.352.053.014.022.025.045.039.067a8.491,8.491,0,0,1,1.7-2.089,7.8,7.8,0,0,1,.626-.525c-.729-.459-1.111-4.971-1.218-5.592-.252-1.462-.5-2.925-.767-4.383-.085-.456-.116-1.125-.271-1.664a2.677,2.677,0,0,1-.824.2c-.045,0-.087,0-.13,0a11.2,11.2,0,0,0-.023,3c.012,1.826.041,3.653.06,5.479.016,1.557.049,3.119,0,4.676A6.568,6.568,0,0,1,94.159,128.427Zm-1.335-16.6c-.106,1.023.42,2.147,1.608,2.1a.981.981,0,0,0,.477-.133c-.012-.021-.022-.045-.035-.064-.039-.058.127-.168.33-.244a2.462,2.462,0,0,0-.065-1.78.768.768,0,0,1-.553.008c-.206.041-.413.018-.461-.121a10.6,10.6,0,0,0-.71-1.6c-.033.212-.06.424-.081.637a2.161,2.161,0,0,0-.024.775.072.072,0,0,1,0,.014C93.4,111.564,93.105,111.762,92.824,111.832Zm2.312-2.633c-.074-.159-.148-.322-.219-.485a7.1,7.1,0,0,1-.875.547q.22.359.415.738c.038.074.077.148.113.223.1.21.195.423.282.639.03.075.057.15.086.224l.041-.041c.049-.051.095-.1.142-.156a4.679,4.679,0,0,0,.421-.515.425.425,0,0,1,.1-.092c-.1-.233-.218-.484-.342-.746-.052-.043-.1-.085-.156-.129A.132.132,0,0,1,95.137,109.2Zm2.105,1.559c-.28-.134-.555-.278-.823-.435a.213.213,0,0,1-.029.059,5.63,5.63,0,0,1-.589.7l-.024.024a.253.253,0,0,1,.185.132,2.327,2.327,0,0,1,.029,2.35c-.029.037-.061.071-.092.105a8.189,8.189,0,0,1,.343,1.745c.247,1.332.474,2.667.7,4,.233,1.352.461,2.707.72,4.054.03.157.179.858.283,1.4.016.085.032.167.045.241.027.147.046.268.055.34l.035-.016.008,0a2.777,2.777,0,0,1,1.377-.284,1.321,1.321,0,0,1,.957.349l.01.014c0-.009,0-.018,0-.027a44.882,44.882,0,0,0-.657-7.591c-.312-1.875-.63-5.727-2.495-6.816A.194.194,0,0,1,97.242,110.758Zm11.7,17.3c-.545-2.167-.712-4.408-1.038-6.614-.284-1.923-.5-4.412-1.7-6.032-1.762-2.388-4.617-3-7.29-3.964,1.139,1.561,1.446,4.262,1.707,5.832a46.013,46.013,0,0,1,.708,9.218c.2-.081.4-.159.609-.231.153-.053.484-.046.533.16a2.04,2.04,0,0,1-.4,1.816c.9.2,1.538.718.858,1.64a5.943,5.943,0,0,1-.8.87c.17-.028.32-.017.347.064.52,1.54-.329,2.6-1.615,3.325v12.449h4.6c-.577-5.146-.918-10.324-1.285-15.488-.3-4.231-.743-8.5-.765-12.748,0-.288.914-.433.915-.245.023,4.372.479,8.773.792,13.131q.087,1.211.173,2.424a.3.3,0,0,1,.189.158c.717,1.62,2.169,4.158,4.052,2.32.13-.127.252-.265.375-.4a.657.657,0,0,1,.209-.229,20.329,20.329,0,0,0,2.823-4.944c1.011-2.269,1.874-4.6,2.715-6.935a17.773,17.773,0,0,1,1.275-3.341.223.223,0,0,1-.109-.046,7.51,7.51,0,0,0-3.858-1.742,59.069,59.069,0,0,1-3.555,7.033c.122.764.266,1.525.454,2.276C109.95,128.164,109.034,128.406,108.947,128.06Zm2.7-16.726c-.144,2.466,2.339,4.38,2.3,6.809a8.018,8.018,0,0,1,2.958,1.2A21.029,21.029,0,0,0,120.8,115.8a8.917,8.917,0,0,0,1.848-2.857c.338-1.063.246-1.535-.764-1.285a29.136,29.136,0,0,1-2.414,2.751c-.224.286-1.1.233-.751-.213a26.8,26.8,0,0,0,2.3-2.672l.039-.07c.037-.065.078-.128.111-.2a1.57,1.57,0,0,0,.234-.992c-.059-.221-.178-.871-.488-.613a2.937,2.937,0,0,0-.9,1.369.464.464,0,0,1-.289.258c-.329.692-.723,1.362-1.1,2.024-.138.241-.995.3-.906.149a11.364,11.364,0,0,0,1.832-4.424c-.156.013-.279,0-.278-.059q0-.171,0-.342a3.046,3.046,0,0,0-.717.866,8.151,8.151,0,0,1-1.582,2.949c-.161.2-1.068.3-.841.02a8.811,8.811,0,0,0,1.2-1.926c-.062-.016-.1-.045-.077-.089a6.319,6.319,0,0,1,.366-.725,4.032,4.032,0,0,0-.037-2.416c-1.721,1-2.184,3.523-3.147,5.136a.33.33,0,0,1-.138.109c.514,1.039.9,2.124,1.1,2.611.138.334-.766.606-.915.245a25.618,25.618,0,0,0-1.356-2.88C112.913,112.156,111.725,109.976,111.646,111.334Zm2.282.525c.9-1.77,1.441-3.839,3.221-4.816.048-.026.093-.056.143-.08a4.2,4.2,0,0,1,.477-.2c.141-.049.54-.176.628.028a3.868,3.868,0,0,1,.311,1.7,3.462,3.462,0,0,1,.5-.3l.071-.034c0-.044,0-.087,0-.13q.026-2.253.051-4.507l-6.028-.069c-.041,2.41-.208,4.816-.252,7.226A5.65,5.65,0,0,1,113.928,111.859ZM100.406,126.82c0-.067,0-.134.006-.2-.035.078-.075.158-.119.238-.034.061-.071.123-.11.185l.1-.054.135-.071A.277.277,0,0,1,100.406,126.82Zm-4.952,2.47a9.94,9.94,0,0,1,.815,5.911.832.832,0,0,1,.184-.054,14.1,14.1,0,0,0,1.492-.26,1.217,1.217,0,0,1,.629-.164,8.559,8.559,0,0,0,1.192-.439c.076-.036.152-.072.226-.111a.7.7,0,0,1,.39-.22l.007,0a3.454,3.454,0,0,0,.809-.682c.027-.032.052-.065.077-.1a2.052,2.052,0,0,0,.422-1.027c0-.022.006-.042.008-.064a2.24,2.24,0,0,0-.011-.451,2.737,2.737,0,0,0-.091-.43c-.049.039-.1.077-.15.115-.379.286-.772.551-1.154.808-.173.116-1.095.214-.706-.047a14.908,14.908,0,0,0,1.756-1.307,6.033,6.033,0,0,0,.491-.5c.048-.056.106-.122.164-.193a1.15,1.15,0,0,0,.333-.776c0-.008,0-.016,0-.024a.408.408,0,0,0-.005-.043.748.748,0,0,0-.477-.481,1.753,1.753,0,0,0-.177-.062c-.039.036-.078.072-.118.107-.481.425-1.057.793-1.544,1.173-.33.258-1.083.019-.593-.364.771-.6,1.873-1.151,2.136-2.082.01-.036.022-.071.029-.107a1.6,1.6,0,0,0,.027-.4v0h0a12.4,12.4,0,0,0-2.983,1.794.486.486,0,0,1-.152.078l-.016.012c-.192.133-1.116.2-.715-.082.035-.024.081-.061.135-.107-.012-.074.03-.165.157-.265.163-.128.327-.252.493-.373.86-.935,1.875-2.385.531-2.468-.918-.057-1.751.985-2.279,1.637-.1.125-.2.254-.307.385a6.355,6.355,0,0,0-.594.89,3.239,3.239,0,0,0-.256.61A.31.31,0,0,1,95.454,129.29Zm.172,7.462q-.452.195-.9.393c-.049.707-.08,1.417-.106,2.125a4.654,4.654,0,0,0,.131,2.339,6.577,6.577,0,0,0,1.658,1.88c.705-.9,2.042-1.552,1.945-2.883-.091-1.248-.158-2.5-.266-3.745a6.463,6.463,0,0,0-.2-1.655v0q-.248.055-.486.1c-.434.084-.837.146-1.183.191a8.326,8.326,0,0,1-.283,1.017l0,.007c-.006.018-.011.036-.017.053C95.884,136.649,95.767,136.71,95.626,136.752Zm-6.42,10.424a12.873,12.873,0,0,1-.673,1.981q-.791,2.384-1.594,4.765c-.57,1.7-1.142,3.4-1.7,5.107-.132.4-.862,1.953-.712,2.289.026.059-.011.121-.083.177H107.73a.042.042,0,0,1,0-.012c.991-2.29,1.676-4.767,2.492-7.124q.833-2.4,1.654-4.811a9.425,9.425,0,0,0,.769-2.337.025.025,0,0,1-.01-.034ZM82.47,163.618H108.7c-.014-.518-.127-1.022-.159-1.538h-25.8c-.037.447-.109.89-.113,1.339A.26.26,0,0,1,82.47,163.618Zm96.907-30.543q-.094.325-.186.649a.181.181,0,0,1,.027.062c.318,1.492.822,2.932,1.228,4.4a27.706,27.706,0,0,1,1.628-2.733c-.456-1.04-.941-2.067-1.4-3.106a.353.353,0,0,1-.306-.121,12.492,12.492,0,0,1-1,.806A.056.056,0,0,1,179.377,133.075Zm.918-1.643a17.935,17.935,0,0,0-.289-1.813,7.4,7.4,0,0,1-3.241-.407v4.794a16.042,16.042,0,0,0,3.276-2.447A.519.519,0,0,1,180.295,131.433Zm-9.348,7.353c-3.287,4.013-1.6,9.366-3.549,13.865a.467.467,0,0,1-.3.23c1.413,2.662,2.866,5.3,4.463,7.856a2.5,2.5,0,0,1,.864-.781,5.755,5.755,0,0,1,.943-.574c-.075-.019-.12-.057-.109-.12.925-5.029-1.737-10.9,1.038-15.6.143-.242,1-.3.907-.147-2.763,4.678-.135,10.514-1.028,15.537a9.187,9.187,0,0,1,1.4-.363c.2-.036.406-.068.612-.092-.007-.031-.012-.064-.019-.095a22.281,22.281,0,0,1-.276-4.417c-.039-2.047-.047-4.093-.047-6.14a51.276,51.276,0,0,1,2.478-14.207C175.777,135.34,172.851,136.462,170.947,138.786ZM147.7,161.318c.03.046-.134.149-.333.224h23.626c-2.938-4.618-5.37-9.532-7.941-14.357l0,0c-.006-.011-.011-.022-.016-.033s.006-.053.039-.082h-23.26C142.357,151.857,144.775,156.734,147.7,161.318Zm-.892,2.3h32.182a.731.731,0,0,1,.347-.087,10.849,10.849,0,0,1-2.823-1.864c-.781-.7-1.782-.3-2.717.012a.839.839,0,0,1-.61.353H146.835V163.5A.246.246,0,0,1,146.8,163.618Zm35.095.194v-3.173a.311.311,0,0,1-.246-.048c-1.745-1.772-5.592-2.1-7.878-.971.045.037-.008.1-.258.172-.054.017-.1.037-.154.056a3.825,3.825,0,0,0-.337.232.706.706,0,0,1-.241.092,1.868,1.868,0,0,0-.573.765l1.581.5q.35-.128.7-.261a7.208,7.208,0,0,1,.948-.275c.436-.083,1.2-.2,1.563.124A10.858,10.858,0,0,0,181.9,163.812Zm-2.189,3.266h6.81a.471.471,0,0,1,.194.031,24.617,24.617,0,0,1-.351-2.839c0-.006,0-.012,0-.018H182.83a1.328,1.328,0,0,1-.5.13,11.558,11.558,0,0,1-2.477-.632.375.375,0,0,1-.142.173Q179.709,165.5,179.709,167.078Zm2.6-6.986.017,0h-.02Zm10.233-2.565q.559-.16,1.117-.315a27.4,27.4,0,0,1-1.1-3.124,13.432,13.432,0,0,0-.072,1.524A6.647,6.647,0,0,0,192.543,157.528Zm-4.279-23.849a19.934,19.934,0,0,0-2.955,5.155c-.093.19-.721.455-.883.237-.706-.956-1.084-2.156-1.847-3.066-.687,1.064-1.227,2.225-1.914,3.288-.12.186-.8.452-.886.1-.305-1.3-.733-2.56-1.093-3.841a49.694,49.694,0,0,0-1.924,12.968c0,2.051.006,4.1.067,6.155a18.114,18.114,0,0,0,.278,3.694c.014.058-.034.115-.114.166a8.109,8.109,0,0,1,4.89,1.213.828.828,0,0,1,.317-.1,20.949,20.949,0,0,0,2.673-.23q.548-.08,1.092-.183c0-.02,0-.04-.007-.06a52.965,52.965,0,0,1,.184-15.53c.6-3.156,1.614-6.377,3.8-8.8C189.378,134.463,188.817,134.076,188.264,133.679Zm-2.327-1.818c-.759,1.3-1.885,2.32-2.736,3.56a11.72,11.72,0,0,1,1.641,2.621,14.366,14.366,0,0,1,2.918-4.676.248.248,0,0,1,.038-.028C187.16,132.869,186.536,132.381,185.937,131.861Zm2-4.787-1.33,1.115v.007A13.229,13.229,0,0,0,187.938,127.074Zm-10.293-11.142c.022.017.044.034.066.052a2.4,2.4,0,0,1,.242-.3A2.283,2.283,0,0,0,177.645,115.932Zm-3.057,1.381a.269.269,0,0,1,.015.087c0,.672-.027,1.355-.051,2.042.425.02.833.17,1.255.181.112,0,.374.045.233.213a.844.844,0,0,1-.608.235,6.187,6.187,0,0,1-.9-.139,20.43,20.43,0,0,0,.325,5.363c.689,2.915,2.682,3.992,5.61,3.682a.417.417,0,0,1,.319.061.182.182,0,0,1,.09.122,17.3,17.3,0,0,1,.354,2.511c.1,0,.176.021.2.079.434,1.006.9,2,1.351,3a19.079,19.079,0,0,0,2.562-3.461.511.511,0,0,1,.342-.224v-3.949c0-.128.132-.234.3-.293l-.025-.111c-.062.006-.123.014-.185.017-.611.036.1-.419.379-.436a2.043,2.043,0,0,0,1.9-2.661,2.175,2.175,0,0,0-.743-1.264c-.479-.347-.746-.167-1.117.244a.773.773,0,0,1-.375.152.564.564,0,0,1-.256.151c-2.486.966-3.876-.789-4.928-2.886a7.363,7.363,0,0,1-.306-.707c-.063.032-.12.055-.128.058a.908.908,0,0,1-.585.067c-.163-.075-.54-.256-.731-.164a1.8,1.8,0,0,0-.456.338,1.149,1.149,0,0,1-.614.211c-.078.009-.353.018-.208-.12a2.72,2.72,0,0,1,2.629-.653c-.22-.629-.4-1.274-.648-1.9a3.861,3.861,0,0,0-.8-1.458c-.063-.055-.052-.167-.041-.234l-.018,0c-.026.054-.074.157-.162.333a4.507,4.507,0,0,0-.287.643c-.094.233-.966.319-.9.162l.006-.014a.414.414,0,0,1-.349-.072C176.107,115.536,175.008,116.3,174.588,117.313ZM94.41,70.926c0,.008,0,.015,0,.023v15.6h0c.221-.12.442-.236.663-.344,1.01-.495,3.725-1.421,4.4.189.481,1.141-1.159,2.056-2.327,2.6a19.461,19.461,0,0,1,3.516.778c.708.232,2.539.744,2.493,1.78-.057,1.275-2.131,1.877-3.1,2.061a7.883,7.883,0,0,1-1.322.129c.049,1.9.383,3.787.439,5.691.045,1.526.087,3.3-.916,4.55-.709.883-3.085,1.148-2.929,2.423a10.5,10.5,0,0,0,.875,2.816c3.308,2.674,8.618,2.219,11.021,6.1,1.053,1.7,1.323,3.948,1.6,5.886.151,1.07.272,2.149.418,3.224,1.112-1.971,2.039-4.071,2.967-6.122.109-.241.516-.3.743-.286l.054.005c-.3-1.936-4.017-6.664-1.5-7.788a1.1,1.1,0,0,1,.656-.084c.059-2.223.2-4.443.236-6.667a.156.156,0,0,1,.01-.049c-.45-.05.182-.448.463-.444l6.653.077c.267-.126.733-.161.731-.055q-.028,2.425-.056,4.851c.131-.014.27-.007.277.081a5.225,5.225,0,0,1-.068,1.315c.048-.032.1-.066.147-.094a1.072,1.072,0,0,1,1.629.422,2.072,2.072,0,0,1-.017,1.5,9.745,9.745,0,0,1,1.254-.067c.1,0,.262.043.285.157.335,1.667-.892,3.316-1.908,4.507a23.155,23.155,0,0,1-4.388,4.017c.046.036.092.071.137.108.288-.017.563.122.342.414-1.005,1.325-1.382,3.556-1.947,5.092a55.385,55.385,0,0,1-3.432,7.96,19.108,19.108,0,0,1-1.307,2.1c20.948,0,41.9.108,62.845.109a.607.607,0,0,1,.122.012c.584-.34,1.176-.67,1.764-1a.22.22,0,0,1-.088-.184v-5.535a.185.185,0,0,1,.007-.039,4.3,4.3,0,0,1-1.668-2.326,10.944,10.944,0,0,1-.285-1.106.515.515,0,0,1-.29.038c-3.269-.607-2.564-4.642-2.514-7.115a7.05,7.05,0,0,1,4.752-6.9V70.769a.733.733,0,0,1-.4.158Zm1.5,15.387c-.287.127-.57.266-.851.409.424-.19.808-.36,1.16-.5A1.7,1.7,0,0,0,95.91,86.313Zm-6.633,17.16a5.453,5.453,0,0,1,.4,3.47.513.513,0,0,1,.305.012c1.213.553,2.2,1.485,3.4,2.05a.954.954,0,0,1,.248-.05c.423-.232.879-.494.9-1a.18.18,0,0,1,.058-.113,3.355,3.355,0,0,1-.176-1.472c.133-.89.941-1.119,1.676-1.44,3.224-1.4,2.258-6.125,1.86-9.483a.682.682,0,0,1-.469.059c-.281-.086-.353-.033-.564.173a.736.736,0,0,1-.647.174.2.2,0,0,1-.1-.358,1.86,1.86,0,0,1,1.721-.551c-.042-.409-.071-.793-.077-1.14a.131.131,0,0,1,.036-.086c-.994-.06-2-.231-2.982-.379.335.253.588.55.534.863-.086.5-.851.674-1.267.762a4.91,4.91,0,0,1-.835.234L90,95.133c.367,1.415.791,3,.115,4.365a.456.456,0,0,1-.258.2l-.007.057-.033-.022c-.2.2-.635.276-.786.046a3.015,3.015,0,0,0-.812-.831,3.375,3.375,0,0,0-.945.053c-.05.029-.1.06-.149.1a1.632,1.632,0,0,0-.2.345,2.22,2.22,0,0,0-.279,1.3c.172.5.543.676.966.915A4.512,4.512,0,0,1,89.277,103.473Zm.3,4.129c-.069.426-.141.845-.2,1.247a3.073,3.073,0,0,0,.807,1.033q.074.063.152.121A8.4,8.4,0,0,0,92.4,111.02c.012-.084.024-.165.032-.237a10.117,10.117,0,0,1,.2-1.257.138.138,0,0,1,.019-.041C91.557,108.97,90.643,108.159,89.577,107.6Zm-2.794,3.652a.527.527,0,0,1,.368.019c2.772,1.524,3.221,5.842,3.478,8.628a70.907,70.907,0,0,1,.1,10.034c0,.057-.005.114-.008.171l.208-.1c.769-.365,1.532-.74,2.293-1.118a.6.6,0,0,1,.335-.183c-.515.14-.36.327-.328-.114.014-.187.024-.374.03-.561.018-.565.024-1.131.024-1.7,0-1.682-.021-3.363-.041-5.044-.02-1.61-.047-3.22-.04-4.83a7.049,7.049,0,0,1,.051-1.894,1.274,1.274,0,0,1,.044-.131.207.207,0,0,1,.06-.072,2.146,2.146,0,0,1-.278-.107,2.214,2.214,0,0,1-1.151-2.5.246.246,0,0,1,.077-.129,11.838,11.838,0,0,1-2.286-1.084,4.378,4.378,0,0,1-.351-.264,3.557,3.557,0,0,1-.622-.682A7.138,7.138,0,0,1,86.783,111.254Zm-10.268,28.7a3.358,3.358,0,0,1,.289-.619c.371-.6,1.723-1.468,2.465-.988a1.2,1.2,0,0,1,.267.236,11.511,11.511,0,0,1,.943-1.679c.141-.206.56-.41.79-.212a2.059,2.059,0,0,1,.773,1.637c.744-.236,1.621-.278,1.71.684a4.764,4.764,0,0,1-.075,1.281.386.386,0,0,1,.274.024,3.187,3.187,0,0,1,.262.213,56.889,56.889,0,0,0,9.724-3.725.819.819,0,0,1,.249-.11q.485-.214.972-.424a9.759,9.759,0,0,0-.883-7.25c-4.328,2.152-8.7,4.26-13.526,4.985-.626.094-.372-.525.1-.6a25.665,25.665,0,0,0,3.207-.706.2.2,0,0,1-.025-.1c.036-4.921,1.871-12.179-2.5-15.815-.264-.219.59-.58.848-.365,4.431,3.683,2.624,11.017,2.572,16.009a43.9,43.9,0,0,0,4.935-1.945.241.241,0,0,1-.089-.211,66.392,66.392,0,0,0-.081-10.139c-.271-2.661-.617-6.9-3.27-8.355a.182.182,0,0,1-.065-.311,23.134,23.134,0,0,1-2.939,1.222c-2.875,1.043-6.094,2.924-6.857,6.169-.45,1.914-.231,4.126-.331,6.093-.09,1.758-.2,3.515-.25,5.274-.056,1.782-.087,3.57.006,5.351C76.075,136.873,75.942,138.682,76.515,139.958Zm-10.622-.67a2.374,2.374,0,0,1-1.065.35,5.466,5.466,0,0,1,.072,2.344.253.253,0,0,1,.175.1,24.492,24.492,0,0,1,3.395,8.6c.315-.223.626-.439.927-.65.5-.351,1.009-.692,1.52-1.03-.138,0-.249-.046-.264-.146C70.1,145.2,67.8,142.332,65.892,139.289Zm-1.73-13.434a10.567,10.567,0,0,1-1.616,4.776c.15.024.265.107.258.269-.084,2.081.82,4.255,1.349,6.236.141.527.341,1.154.512,1.812l.019,0a1.334,1.334,0,0,0,1.192-.513c.292-1.638.356-3.325,1.785-4.439.984-.768,2.02-.673,2.645-1.962a4.677,4.677,0,0,0-.263-4.767c-.137-.246.091-.464.349-.537a2.407,2.407,0,0,0,.37-1.516c-.139-.648-.748-.767-1.331-.779-.1,0-.145-.04-.147-.088a.305.305,0,0,1-.207-.136,32.33,32.33,0,0,1-2.022-3.569c-.139.168-.281.33-.427.479a15.024,15.024,0,0,1-2.651,2.186,8.913,8.913,0,0,1,.2,1.684A2.989,2.989,0,0,1,64.162,125.855Zm-7.095-6.84a15.4,15.4,0,0,1,2.644-.744A9.33,9.33,0,0,0,57.067,119.015Zm-.455,34.246c1.867,2.723,4.4,6.342,7.531,7.73,2.22.984,4.826-.59,6.969-2.391v-.117c0-.2.287-.341.541-.351.921-.817,1.736-1.638,2.365-2.256a56.361,56.361,0,0,0,7.113-8.3c-.069-.01-.1-.034-.074-.077a.793.793,0,0,1-.317.066,8.25,8.25,0,0,1-3.917-1.285.366.366,0,0,1-.4-.2l0-.01c-1.343.979-2.748,1.871-4.139,2.782q-.3.2-.6.4c-.331.22-.662.442-.989.668a34.521,34.521,0,0,0-3.781,2.8l.015.017c.091.1-.124.238-.365.317a7.709,7.709,0,0,0-1.476,1.963c-.167.331-1.093.367-.868-.078a8.245,8.245,0,0,1,1.623-2.135c-2.357-2.669-3.2-6.429-6.232-8.524-.159-.11.636-.477.859-.323,2.946,2.033,3.812,5.615,6.005,8.266.374-.324.765-.632,1.16-.927a24.994,24.994,0,0,0-3.153-8.439c-.776.852-2.241.317-3.255.067a13.574,13.574,0,0,0-4.745-.676,4.01,4.01,0,0,0-3.173,2.392C52.563,147.359,55.342,151.408,56.612,153.26ZM69.1,167.4a.471.471,0,0,1,.1-.013h1.942a.237.237,0,0,1-.034-.126v-8.038l-.1.074a17.786,17.786,0,0,1-2.128,1.434c.086.016.143.056.144.123A49.172,49.172,0,0,1,69.1,167.4ZM57.241,176.08a12.153,12.153,0,0,0,2.875-.469,14.882,14.882,0,0,0,5.242-2.691,7.135,7.135,0,0,0,2.035-2.665c1.211-2.732.752-6.056.723-9.123a5.671,5.671,0,0,1-4.214.487,10.958,10.958,0,0,1-3.992-2.925,35.876,35.876,0,0,1-3.342-3.927c-.061,3.75.988,7.569-.23,11.221-1.084,3.249-3.263,5.752-2.889,9.322a.211.211,0,0,1,.033.012A7.591,7.591,0,0,0,57.241,176.08Zm2.115,34.7a1.52,1.52,0,0,0-2.235-.249,1.67,1.67,0,0,0-.037,2.366c.689.7,2.164.818,2.535-.29A1.948,1.948,0,0,0,59.356,210.783Zm9.293-.269a1.668,1.668,0,0,0-2.451-.259,1.8,1.8,0,0,0-.044,2.554c.755.771,2.375.88,2.78-.328A2.1,2.1,0,0,0,68.65,210.515Zm6.781.02a1.671,1.671,0,0,0-.037,2.366c.689.7,2.163.818,2.534-.29a1.948,1.948,0,0,0-.263-1.827A1.52,1.52,0,0,0,75.43,210.534Zm-6.537-4.486c-.251.063-.533.028-.533-.189V185.847c-.31,0-.62,0-.93,0-.51.022-1.019.053-1.528.089v19.814c0,.29-.819.48-.907.169-2.921-.032-8.25-.655-7.292,3.767a.073.073,0,0,1,0,.022,3.136,3.136,0,0,1,1.212-.051c.877-2.308,4.436-2.4,6.565-2.39.257-.067.555-.015.555.236v2.226a3,3,0,0,1,2.333-.394v-1.489a.3.3,0,0,1,.176-.244c-.478-.029.193-.408.453-.41,2.112-.013,6.164-.013,6.873,2.553a3.287,3.287,0,0,1,1.08-.118C77.632,205.3,71.722,206.027,68.893,206.049Zm5.533-25.494c-1.939.35-3.935.462-5.908.766a30.785,30.785,0,0,1-6.756.751,14.244,14.244,0,0,1-4.6-.973c-1.509-.145-3.727.646-3.572,2.465a1.916,1.916,0,0,0,1.149,1.6c2.17,1.052,5,.829,7.334.7,1.019-.056,2.036-.146,3.054-.232a.709.709,0,0,1,.715-.057q.476-.038.952-.07a.455.455,0,0,1,.089-.016c.065,0,.139,0,.219,0,.31-.019.62-.041.931-.053.2-.008.252.03.23.085l.452.017a.632.632,0,0,1,.477.018c4.26.158,12.094.323,11.466-2.861C80.195,180.369,76.365,180.479,74.426,180.555Zm6.138-12.584H69.016a8.96,8.96,0,0,1-.23.967,8.633,8.633,0,0,1-4.04,5.048c-2.5,1.49-5.9,2.819-9.015,2.581-.734,2.172.5,3.426,2.266,4.127,1.13.182,2.212.629,3.37.734a12.177,12.177,0,0,0,3.1-.067,19.739,19.739,0,0,1,2.778-.418c.282-.041.659-.1,1.112-.164.258-.041.518-.079.779-.111l.142-.017c.934-.124,2.048-.257,3.221-.355a16.345,16.345,0,0,0,5.8-1.579l.027-.012,0-.024c-.1-.072-.053-.2.057-.324C79.048,174.881,80.447,171.535,80.564,167.971ZM83.18,203.4a.142.142,0,0,1,.025.031,8.976,8.976,0,0,0,4.921,4.271c.076-1.742-1.326-2.906-2.139-4.372-.054-.1.178-.237.424-.3,1.109-6.948,4.141-13.466,5.116-20.46.437-3.137.665-6.779-.94-9.652-1.865-3.339-5.571-4.319-9.15-4.451-.266,3.294-1.522,6.418-2.135,9.657a10.652,10.652,0,0,0,4.241-.46.582.582,0,0,1,.091-.028c.064-.148.125-.3.194-.443.142-.3,1.062-.381.86.05C80.812,185.529,84.777,194.74,83.18,203.4Zm5.857,4.147a3.473,3.473,0,0,1-.048.44c-.04.226-.577.3-.744.282a8.411,8.411,0,0,1-5.466-3.787c-.454,2-1.046,5.948.133,6.684a6.237,6.237,0,0,0,.5-2.637.1.1,0,0,1,.017-.094c.121-.26.863-.4.9-.152a6.53,6.53,0,0,0,2.817,3.064c.622.357,2.74,1.733,3.1.449A5.143,5.143,0,0,0,89.037,207.544Zm4.891-.514c.093.519-.112.959-.862,1.217a3.584,3.584,0,0,1-2.874-.54,6.327,6.327,0,0,1,1.162,3.092,22.849,22.849,0,0,0,3.194,1.083c1,.239,3.378.647,2.537-1.143A11.2,11.2,0,0,0,93.928,207.031Zm2.111-21.143c-1.423,5.667-3.662,11.133-4.629,16.895h4.485c0-.137.01-.274.012-.411a.279.279,0,0,1,.044-.145A111.8,111.8,0,0,1,96.038,185.888ZM91.415,203.28a22.137,22.137,0,0,0,1.748,2.281,12.836,12.836,0,0,1,2.411,1.9c.049-1.4.225-2.784.3-4.179l-.031,0Zm3.819-30.952c-1.677-3.263-5.084-4.36-8.511-4.573H81.479c0,.067-.006.135-.009.2,3.441.075,7.424.8,9.506,3.856,1.814,2.658,1.964,6.029,1.645,9.137-.788,7.69-4.236,14.753-5.363,22.352a.263.263,0,0,1-.126.164c.378.6.814,1.152,1.177,1.725a.3.3,0,0,1,.167.079,10.662,10.662,0,0,0,1.72,1.415c.583.394,1.825,1.35,2.586,1.089.5-.172.1-.969-.5-1.835-.079-.043-.158-.086-.236-.126-.145-.073-.131-.172-.041-.263-.5-.677-1.05-1.346-1.335-1.75-.174,0-.313-.05-.293-.187s.043-.249.063-.373c-.072-.045-.045-.123.033-.2,1.163-7.053,4.321-13.661,5.449-20.743C96.434,179.08,96.78,175.334,95.234,172.328Zm1.759-4.574H90.449a8.333,8.333,0,0,1,5.208,3.468,9.7,9.7,0,0,1,1.155,2.7C96.915,171.865,96.985,169.811,96.994,167.755Zm7.909,34.961a.322.322,0,0,1,.052-.129h-3.629a.341.341,0,0,1,.007.064c-.02,3.11-.324,6.21-.346,9.321a1,1,0,0,1,.418-.143h10.107c.444-3-1.559-3.737-3.972-4.808C105.616,206.167,104.577,204.906,104.9,202.716Zm1.731-34.961H98.868c.065,11.479,2.054,22.853,2.111,34.335h4.6C104.652,190.628,106.593,179.213,106.633,167.755Zm45.026,40.1c1.357.644,3.8-1.433,4.721-2.324a.506.506,0,0,1,.218-.108c.459-.65,1.012-1.272,1.432-1.974a.212.212,0,0,1,.04-.047.125.125,0,0,1-.044-.076c-1.153-7.827-4.278-15.266-4.841-23.207-.221-3.128-.2-6.834,1.749-9.475a7.969,7.969,0,0,1,4.336-2.891h-.949a.879.879,0,0,1-.606.344c-3.52.037-6.648,1.435-7.824,4.96-1.035,3.1-.813,6.525-.357,9.717,1,7,3.534,13.673,4.562,20.654a.16.16,0,0,1-.005.067.3.3,0,0,1-.022.082,13.532,13.532,0,0,1-1.411,1.735c.077.1.042.238-.216.36-.049.023-.1.05-.144.074C151.568,206.658,151.026,207.556,151.66,207.856Zm3.33-.416a4.879,4.879,0,0,1-3.815,1c-.87-.263-.877-.879-.52-1.594-.46.373-.9.77-1.31,1.151-.866.8-2.248,1.917-2.485,3.146-.473,2.453,5.106.421,6.365-.049A7.6,7.6,0,0,1,154.99,207.44Zm7.4-2.979a9.626,9.626,0,0,1-6.229,3.969c-.077.009-.357.053-.381-.077a3.165,3.165,0,0,1-.037-.928c-1.046,1.263-2.011,3.047-1.359,4.408s2.493.345,3.433-.184a6.682,6.682,0,0,0,2.98-2.995s0-.009,0-.014c.04-.269.852-.434.91-.182a.159.159,0,0,1,0,.037c0,.006,0,.011,0,.017a6.912,6.912,0,0,0,.635,2.882,4.347,4.347,0,0,0,.539-1.077,7.648,7.648,0,0,0,.123-1.387A16.051,16.051,0,0,0,162.387,204.461Zm3.932-26.348c-.053-3.352-.486-6.692-.512-10.046,0-.141.126-.252.286-.312h-3.6c-3.491.055-6.586,1.456-7.754,4.957-1.035,3.1-.812,6.525-.357,9.717,1,7,3.534,13.673,4.562,20.654a.193.193,0,0,1-.052.152c.046.015.068.038.048.071-.916,1.531-2.542,2.724-2.263,4.665a8.836,8.836,0,0,0,5.335-4.174l.005-.006a.182.182,0,0,1-.077-.117c-1.656-8.723,2.353-17.977-1.557-26.341-.146-.314.752-.595.915-.245.078.167.148.334.219.5a.354.354,0,0,1,.111.022A11.916,11.916,0,0,0,166.319,178.113Zm12.464-10.855v-3.142H80.57v3.142h5.358a.572.572,0,0,1,.187-.036c.31.005.626.018.943.036Zm6.046,14.074c1.937.044,4.347-.114,5.581-1.855,1.573-2.22,1.12-5.365.663-7.862a.3.3,0,0,1,0-.053,3.462,3.462,0,0,1-2.956-1.184,7.269,7.269,0,0,1-1.367-3.108.875.875,0,0,1-.587.318H179.5a.872.872,0,0,1-.434.167H166.591a.248.248,0,0,1,.141.23c.025,3.317.448,6.622.509,9.938C173.009,179.077,178.914,181.2,184.828,181.332Zm-10.934,29.452a1.519,1.519,0,0,0-2.234-.249,1.67,1.67,0,0,0-.037,2.366c.689.7,2.163.818,2.535-.29A1.947,1.947,0,0,0,173.894,210.783Zm9.293-.269a1.668,1.668,0,0,0-2.451-.259,1.8,1.8,0,0,0-.044,2.554c.755.771,2.374.88,2.779-.328A2.1,2.1,0,0,0,183.187,210.515Zm6.781.02a1.671,1.671,0,0,0-.037,2.366c.689.7,2.163.818,2.535-.29a1.947,1.947,0,0,0-.263-1.827A1.52,1.52,0,0,0,189.968,210.534Zm-5.79-4.5a.722.722,0,0,1-.456.012l-.327,0c-.53,0-.142-.382.2-.493V186.047c-.818-.063-1.638-.12-2.458-.153v19.854c0,.276-.74.461-.888.21a.427.427,0,0,1-.084.013c-2.854-.015-8.9-.841-7.918,3.714a.072.072,0,0,1,0,.022,3.13,3.13,0,0,1,1.211-.051c.878-2.308,4.436-2.4,6.566-2.39.257-.067.555-.015.555.236v2.226a2.772,2.772,0,0,1,2.885-.144v-1.74a.275.275,0,0,1,.127-.212c-.042-.115.417-.349.621-.35,2.076-.016,5.558-.021,6.2,2.46a3.3,3.3,0,0,1,1.077-.117C192.114,205.656,187.179,205.942,184.178,206.033Zm9.862-24.521c-2.049-1-4.349.262-6.485.477a11.11,11.11,0,0,1-1.473.042,22.161,22.161,0,0,1-4.252-.231h-.084a.319.319,0,0,1-.233-.047c-.783-.118-1.562-.262-2.335-.418a44.8,44.8,0,0,0-6.366-.683c-1.217-.01-3.54-.136-4.16,1.214a1.762,1.762,0,0,0,.491,2.214c1.873,1.406,4.792,1.381,7.021,1.431,1.651.037,3.3-.027,4.954-.039a.713.713,0,0,1,.344-.1c.823.033,1.644.1,2.466.165a.571.571,0,0,1,.52.042c1.106.095,2.212.192,3.321.24,1.976.085,5.583.553,7.2-.914C196.121,183.859,195.269,182.113,194.04,181.512Zm2.778-14.166c-1.085-.1-2.152-.459-3.24-.529.017,1.227-.026,2.457-.033,3.686,0,.152-.19.269-.4.327.059.154-.032.359-.327.442-.265.075-.54.139-.818.188.457,2.519.888,5.658-.566,7.943a5.072,5.072,0,0,1-1.6,1.578,24.579,24.579,0,0,1,2.429-.442,3.962,3.962,0,0,1,1.941.384c2.371-3.7,2.57-9.05,2.4-13.294A.34.34,0,0,1,196.817,167.346Zm6.664-20.5c-.383-2.658-2.051-2.882-4.418-2.768h-.032c.343,1.144.6,2.331.83,3.548a75.523,75.523,0,0,1,1.4,10.288c.1,1.823.416,4.991-1.274,6.265a.641.641,0,0,1-.646.029.674.674,0,0,1-.212.047h-5.712a21.937,21.937,0,0,1,.159,2.19,18.926,18.926,0,0,1,3.233.455c2.287.344,3.724-1.278,4.34-3.263.722-2.325.594-4.761.832-7.157a.15.15,0,0,1-.033-.15c.027-.106.057-.213.085-.319.026-.211.054-.422.087-.633a.228.228,0,0,1,.125-.146C203,152.515,203.885,149.639,203.482,146.843Zm-25.92-20.988a.718.718,0,0,0,.647-.174.205.205,0,0,0-.1-.369c-.613-.17-.682-.705-.553-1.257.09-.385-.839-.249-.919.1a1.635,1.635,0,0,0,.039,1.05A1.282,1.282,0,0,0,177.562,125.855Zm-1.891-4.082c-.156.016-.512.13-.512.341v.925c0,.218.228.267.409.249.156-.016.512-.13.512-.341v-.925C176.08,121.8,175.852,121.755,175.671,121.773ZM93.541,98.932a2.394,2.394,0,0,0-.173-1.04c-.144-.311-1.038-.02-.915.245a2.388,2.388,0,0,1,.173,1.04C92.625,99.452,93.541,99.281,93.541,98.932Zm2.515,2.132a1.889,1.889,0,0,0,1.039-1.156,1.821,1.821,0,0,0-.652-1.577c-.292-.306-1.158.071-.837.407.541.567.89,1.315.041,1.773C95.1,100.807,95.593,101.313,96.056,101.064Zm29.364,19.166c.1-8.934-.018-17.869.079-26.8,0-.253.488-.409.751-.372a.6.6,0,0,1,.189-.037l4.726.054,2.16.025.179,0c.3,0,.288.108.168.216a.106.106,0,0,1,.005.025c-.1,8.908-.06,17.817-.158,26.724a.226.226,0,0,1-.055.138c.135.117-.358.4-.6.4l-7.065-.081c-.249,0-.282-.078-.216-.165C125.487,120.343,125.419,120.3,125.419,120.23Zm.891-.156,6.294.072c.1-8.853.057-17.708.157-26.561a.2.2,0,0,1,.007-.041l-6.357-.072c-.091,8.837.02,17.676-.076,26.513A.206.206,0,0,1,126.31,120.074ZM92.579,101.594c-.276-.175-1.114.219-.722.467a3.038,3.038,0,0,0,2.332.366c.145-.032.442-.179.39-.375s-.38-.161-.525-.13A1.96,1.96,0,0,1,92.579,101.594ZM66.358,124.912c.381.2.574.588.864.888.206.213,1.07-.121.854-.346-.144-.149-.259-.323-.392-.481a1.938,1.938,0,0,0-.591-.479.784.784,0,0,0-.645.094C66.321,124.66,66.173,124.815,66.358,124.912ZM97.693,98.239c-.012-.355-.161-.685-.173-1.04-.009-.27-.927-.093-.915.245.012.355.161.685.173,1.04C96.787,98.754,97.7,98.577,97.693,98.239Zm40.357,22.07c0-.068,0-.136,0-.2q.072-6.148.166-12.3c.107-7.3.221-14.6.305-21.894a.225.225,0,0,1,.054-.136c-.429-.055.2-.447.476-.443l7.065.081c.133,0,.2.024.23.058.071.019.117.057.116.116q-.2,17.315-.395,34.631a.266.266,0,0,1-.111.195,1,1,0,0,1-.566.256l-7.065-.081c-.263,0-.286-.087-.2-.181A.11.11,0,0,1,138.05,120.309Zm.9-.165,3.227.037,2.985.034q.2-17.175.392-34.351l-6.112-.07c-.132,11.423-.34,22.846-.472,34.269a.22.22,0,0,1-.01.059C138.952,120.129,138.948,120.137,138.945,120.144ZM90.99,97.027a.724.724,0,0,0,.649-.083,5.787,5.787,0,0,1,1.681-.772c.134-.036.446-.165.394-.359s-.387-.149-.521-.113a7.336,7.336,0,0,0-2.125.961C90.944,96.74,90.791,96.928,90.99,97.027Zm59.17,23.513a.1.1,0,0,1-.032-.073c.15-13.208.249-26.417.4-39.625,0-.265.535-.424.786-.366l6.92.079c.316,0,.286.123.142.238.141,0,.248.04.247.132-.151,13.158-.374,26.315-.525,39.473,0,.264-.534.423-.785.366l-6.921-.079C150.159,120.683,150.113,120.619,150.159,120.54Zm.88-.3,6.145.07c.152-13.046.371-26.092.521-39.138a.225.225,0,0,1,.055-.138.257.257,0,0,1,.024-.028l-6.347-.072c0,.073,0,.146,0,.219-.147,13.023-.246,26.047-.393,39.07A.106.106,0,0,1,151.039,120.239Zm28.882,2.2a1.291,1.291,0,0,1-.333-.973c0-.421-.919-.239-.919.1a1.655,1.655,0,0,0,.407,1.248C179.319,123.067,180.19,122.72,179.921,122.436Z" transform="translate(0)" fill="#6d3eb7"/>
  </g>
</svg>
